<svg xmlns="http://www.w3.org/2000/svg" 
  version="1.1"
  viewBox="5500 6500 17000 8000" 
  fill="currentColor"
  xmlns:xlink="http://www.w3.org/1999/xlink">
 <g>
  <path d="M18217 13789c0,158 74,232 232,232l890 0 0 -110 1 0 0 -514c0,-159 -74,-233 -232,-233l-838 0 0 155 808 0c83,0 98,14 98,98l0 101 -727 0c-158,0 -232,74 -232,233l0 38zm262 -116l697 0 0 193 -697 0c-83,0 -98,-14 -98,-96 0,-82 15,-97 98,-97z"/>
  <path d="M21931 13164l-688 0c-158,0 -232,74 -232,233l0 392c0,158 74,232 232,232l921 0 0 -155 -884 0c-83,0 -98,-14 -98,-98l0 -40 0 -58 0 -155 0 -98c0,-84 15,-98 98,-98l615 0c83,0 98,14 98,98l0 98 -557 0 0 155 728 0 0 -273c0,-159 -74,-233 -233,-233z"/>
  <path d="M19545 13515l0 155 225 0 0 119c0,158 75,232 233,232l775 0 0 -155 -738 0c-83,0 -98,-14 -98,-98l0 -98 836 0 0 -155 -836 0 0 -351 -172 0 0 351 -225 0z"/>
  <path d="M16538 13164l0 857 172 0 0 -702 436 0 0 702 172 0 0 -702 338 0c83,0 98,14 98,98l0 604 171 0 0 -624c0,-159 -74,-233 -233,-233l-1154 0z"/>
  <polygon points="16045,13340 16217,13340 16217,13164 16045,13164 "/>
  <polygon points="16045,13512 16045,14021 16217,14021 16217,13512 "/>
  <path d="M14571 13515l0 155 225 0 0 119c0,158 74,232 233,232l774 0 0 -155 -737 0c-84,0 -99,-14 -99,-98l0 -98 836 0 0 -155 -836 0 0 -351 -171 0 0 351 -225 0z"/>
  <path d="M13418 13164l0 625c0,158 74,232 233,232l840 0 0 -155 -804 0c-83,0 -98,-14 -98,-98l0 -604 -171 0z"/>
  <path d="M12145 14021l719 0c158,0 233,-74 233,-232l0 -625 -172 0 0 604c0,84 -14,98 -97,98l-646 0c-84,0 -98,-14 -98,-98l0 -604 -172 0 0 625c0,158 74,232 233,232z"/>
  <path d="M11364 13164l-688 0c-158,0 -232,74 -232,233l0 392c0,158 74,232 232,232l921 0 0 -155 -884 0c-83,0 -98,-14 -98,-98l0 -40 0 -58 0 -155 0 -98c0,-84 15,-98 98,-98l615 0c83,0 98,14 98,98l0 98 -558 0 0 155 729 0 0 -273c0,-159 -75,-233 -233,-233z"/>
  <path d="M8757 13164l0 857 171 0 0 -702 436 0 0 702 172 0 0 -702 338 0c83,0 98,14 98,98l0 604 172 0 0 -624c0,-159 -74,-233 -233,-233l-1154 0z"/>
  <path d="M7245 13164l0 857 172 0 0 -354 749 0c84,0 98,14 98,98l0 256 171 0 0 -277c0,-158 -74,-232 -232,-232l-118 0 350 -324 0 -24 -205 0 -373 348 -440 0 0 -348 -172 0z"/>
  <polygon points="6886,14021 7070,14021 7070,13998 6455,13164 6279,13164 5664,13998 5664,14021 5847,14021 6366,13322 "/>
  <polygon points="10940,12627 18111,6854 16781,12418 17298,8528 "/>
  <path d="M16781 12418c-2255,-2523 -6127,-2468 -9569,-2080 2052,-457 7949,-1314 9569,2080z"/>
 </g>
</svg>